<?xml version="1.0" encoding="UTF-8"?>
<svg version="1.1" xmlns="http://www.w3.org/2000/svg" width="1920" height="2162">
<path d="M0 0 C0.82295563 -0.00058914 1.64591125 -0.00117828 2.49380493 -0.00178528 C27.86198699 -0.01459359 53.06220308 0.37821016 78.31634521 3.02215576 C80.51183032 3.25123438 82.7081222 3.47052041 84.90478516 3.68798828 C163.79017946 11.59055105 241.27158574 31.73328118 397.54101562 103.53125 C400.5770426 105.29475082 403.62438329 107.03765075 406.671875 108.78125 C454.30695006 136.28720037 498.79483295 169.28861922 539.5 206.25 C540.25023437 206.91902344 541.00046875 207.58804688 541.7734375 208.27734375 C553.16479665 218.43873887 564.25049359 228.9123527 575.0625 239.6875 C575.79984375 240.42025146 576.5371875 241.15300293 577.296875 241.90795898 C581.29563719 245.91810199 585.11255221 250.02477008 588.80932617 254.31420898 C591.5751276 257.48100169 594.48303964 260.51138641 597.375 263.5625 C602.29493773 268.7894866 606.95374682 274.10862862 611.43359375 279.71875 C613.50112782 282.25138153 615.66113341 284.6573116 617.875 287.0625 C622.87363524 292.56186209 627.4156847 298.3830838 631.95507812 304.25927734 C633.58938725 306.36518073 635.23863336 308.45872517 636.890625 310.55078125 C644.77451991 320.55747368 652.32906878 330.7207161 659.5 341.25 C659.87960876 341.80727783 660.25921753 342.36455566 660.65032959 342.9387207 C678.40524213 369.03220239 695.28403013 395.44263316 709.99560547 423.39697266 C711.46421857 426.18214187 712.95100905 428.95690865 714.44140625 431.73046875 C752.20794367 502.46879159 778.33715645 579.99771354 793.5 665.25 C793.61796936 665.93543884 793.73593872 666.62087769 793.85748291 667.3270874 C796.69503137 683.94251553 798.8856838 700.61696418 800.6875 717.375 C800.76640472 718.09629089 800.84530945 718.81758179 800.92660522 719.56072998 C803.7551477 745.73889248 804.84083749 771.85510285 804.76074219 798.1652832 C804.74935909 801.93024261 804.7561394 805.69491867 804.76762009 809.45986843 C804.8361595 836.00445371 803.63694098 862.41186282 800.75 888.8125 C800.62544937 889.96934799 800.62544937 889.96934799 800.49838257 891.14956665 C794.77454002 943.84779801 783.68113041 995.59413587 768.125 1046.25 C767.81721115 1047.26445694 767.81721115 1047.26445694 767.50320435 1048.29940796 C766.92217557 1050.20305522 766.32470683 1052.10166107 765.7265625 1054 C765.22503662 1055.60101562 765.22503662 1055.60101562 764.71337891 1057.234375 C762.34529025 1063.11981384 759.18886636 1066.85520221 754.0625 1070.5 C752.98104899 1071.28155422 751.90034402 1072.0641416 750.8203125 1072.84765625 C750.26762695 1073.24484863 749.71494141 1073.64204102 749.14550781 1074.05126953 C746.53138679 1075.95562179 743.98903594 1077.95043428 741.4375 1079.9375 C702.2412028 1110.14034901 660.11973313 1135.94858927 616.5 1159.25 C615.6244043 1159.71937988 614.74880859 1160.18875977 613.84667969 1160.67236328 C563.12370905 1187.7797143 510.32406525 1209.89889301 455.5 1227.25 C454.31083984 1227.62705078 453.12167969 1228.00410156 451.89648438 1228.39257812 C409.06820281 1241.82744634 365.07151121 1251.06557767 320.5 1256.25 C319.79238525 1256.3335675 319.08477051 1256.41713501 318.35571289 1256.50323486 C230.22484007 1266.80381668 138.67207897 1255.67536854 -0.57055664 1191.17480469 C-7.50272442 1187.00126018 -14.49152927 1183.00577963 -21.625 1179.1875 C-51.52342177 1163.06853945 -80.04516098 1144.23334254 -107.5 1124.25 C-108.23750488 1123.71536133 -108.97500977 1123.18072266 -109.73486328 1122.62988281 C-120.00672752 1115.17062864 -130.10569498 1107.5130013 -140.09765625 1099.68359375 C-143.68716792 1096.87396273 -147.3081843 1094.10903869 -150.94189453 1091.35693359 C-158.24139816 1085.82558051 -165.36358138 1080.12106801 -172.40869141 1074.26953125 C-178.07394177 1069.57273336 -183.85706237 1065.07025778 -189.71582031 1060.61621094 C-192.49272292 1058.48983614 -195.24581812 1056.3331832 -198.00170898 1054.1796875 C-220.03860095 1036.96925904 -242.43464729 1020.54438692 -266.5 1006.25 C-267.27053711 1005.79109375 -268.04107422 1005.3321875 -268.83496094 1004.859375 C-290.29866904 992.19532163 -313.80602508 982.23673812 -338.5 978.25 C-339.28117187 978.11851562 -340.06234375 977.98703125 -340.8671875 977.8515625 C-368.93983739 973.93198497 -397.04533539 981.89614773 -419.69287109 998.54003906 C-441.4538948 1014.97555365 -456.53749475 1038.27715148 -460.75 1065.4375 C-463.84728264 1090.51995849 -456.21970827 1114.45579246 -440.77905273 1134.25292969 C-432.38935004 1144.52500804 -422.51214035 1153.59516304 -412.5 1162.25 C-410.87103946 1163.70390807 -409.24541821 1165.16157732 -407.625 1166.625 C-406.78453125 1167.38296875 -405.9440625 1168.1409375 -405.078125 1168.921875 C-403.359375 1170.47395833 -401.640625 1172.02604167 -399.921875 1173.578125 C-395.49878599 1177.56704577 -391.05384995 1181.52567907 -386.5625 1185.4375 C-383.32624923 1188.28147795 -380.13591332 1191.17612701 -376.9375 1194.0625 C-374.80582519 1195.97554149 -372.6598089 1197.86887612 -370.5 1199.75 C-366.60487189 1203.14253093 -362.77217237 1206.60194201 -358.9375 1210.0625 C-356.80582519 1211.97554149 -354.6598089 1213.86887612 -352.5 1215.75 C-348.60487189 1219.14253093 -344.77217237 1222.60194201 -340.9375 1226.0625 C-338.80582519 1227.97554149 -336.6598089 1229.86887612 -334.5 1231.75 C-330.60487189 1235.14253093 -326.77217237 1238.60194201 -322.9375 1242.0625 C-320.80582519 1243.97554149 -318.6598089 1245.86887612 -316.5 1247.75 C-312.60487189 1251.14253093 -308.77217237 1254.60194201 -304.9375 1258.0625 C-302.80582519 1259.97554149 -300.6598089 1261.86887612 -298.5 1263.75 C-294.60487189 1267.14253093 -290.77217237 1270.60194201 -286.9375 1274.0625 C-284.80582519 1275.97554149 -282.6598089 1277.86887612 -280.5 1279.75 C-274.91020011 1284.62143203 -269.42465102 1289.6089515 -263.921875 1294.578125 C-259.34587653 1298.7049457 -254.75006718 1302.80373275 -250.09375 1306.83984375 C-248.8569701 1307.93415145 -247.66771869 1309.08228131 -246.5 1310.25 C-246.64945073 1313.39877221 -247.15197991 1314.87013493 -249.29296875 1317.20703125 C-264.57912914 1329.05193531 -278.79614821 1336.04125925 -298.5 1334.25 C-323.71941184 1330.96202426 -348.06738034 1316.69808449 -368.5 1302.25 C-369.19947754 1301.76160645 -369.89895508 1301.27321289 -370.61962891 1300.77001953 C-382.0332109 1292.78731343 -392.88627515 1284.2642206 -403.5 1275.25 C-404.1403418 1274.70875488 -404.78068359 1274.16750977 -405.44042969 1273.60986328 C-421.50228349 1260.00155902 -436.56881768 1245.36795374 -451.44799805 1230.48730469 C-453.95406918 1227.98344544 -456.46808924 1225.48774736 -458.98242188 1222.9921875 C-466.94975227 1215.05234711 -474.6204376 1207.1636173 -481.5 1198.25 C-482.37330717 1197.2092072 -483.25346863 1196.17407021 -484.14453125 1195.1484375 C-515.05410071 1159.1708125 -538.32844871 1115.56327413 -562.37841797 1074.84130859 C-606.40227418 998.82950522 -606.40227418 998.82950522 -659.14257812 928.82470703 C-660.4821811 927.27067121 -661.79567654 925.69703803 -663.109375 924.12109375 C-682.77931621 901.01276177 -715.96519972 889.23247633 -745.5 886.25 C-762.73478901 885.01649621 -776.76315727 888.69136508 -791.5 897.25 C-792.16 897.91 -792.82 898.57 -793.5 899.25 C-794.49 899.25 -795.48 899.25 -796.5 899.25 C-796.97109989 895.08468394 -797.42398687 890.91753482 -797.875 886.75 C-798.00132812 885.63496094 -798.12765625 884.51992188 -798.2578125 883.37109375 C-801.0213814 857.53172456 -801.88275423 831.67727354 -801.81805801 805.70972443 C-801.81238689 803.39126007 -801.80958556 801.07280313 -801.80697632 798.7543335 C-801.76626925 773.81979489 -801.07574068 749.06812124 -798.5 724.25 C-798.37271515 722.99772614 -798.37271515 722.99772614 -798.24285889 721.72015381 C-790.21003061 643.06110284 -770.96630188 565.21225681 -683.33447266 382.20800781 C-681.78868635 379.71549425 -680.25543973 377.21620576 -678.73046875 374.7109375 C-655.27121013 336.36188245 -627.40550467 300.00606266 -596.94921875 266.9453125 C-594.99244399 264.79192401 -593.07255731 262.61759254 -591.1640625 260.421875 C-581.867135 249.77078367 -571.97692417 239.63623056 -562 229.625 C-561.27127686 228.89168457 -560.54255371 228.15836914 -559.79174805 227.40283203 C-555.80930181 223.43176812 -551.72867162 219.64554128 -547.46923828 215.97412109 C-544.11683947 213.03900574 -540.91489302 209.94599777 -537.6875 206.875 C-532.36842418 201.85156497 -526.97707193 197.03215548 -521.25 192.47265625 C-518.65369422 190.3742216 -516.13362791 188.21225834 -513.6184082 186.01855469 C-505.89009632 179.28699049 -497.8447872 173.05081469 -489.66015625 166.88671875 C-487.54310537 165.28266031 -485.44119608 163.66083476 -483.34375 162.03125 C-450.47257695 136.5284884 -414.98171113 114.06326066 -378.18554688 94.66845703 C-375.69474355 93.35286 -373.21323066 92.02152951 -370.734375 90.68359375 C-297.8190089 51.50670203 -217.08640585 24.70842679 -73.9375 3 C-73.04501556 2.91691589 -72.15253113 2.83383179 -71.23300171 2.74822998 C-65.32523991 2.20486037 -59.41483515 1.70967742 -53.5 1.25 C-52.81907288 1.19485229 -52.13814575 1.13970459 -51.43658447 1.08288574 C-34.34171262 -0.25811753 -17.1357708 0.00561412 0 0 Z " fill="#73B842" transform="translate(958.5,58.75)"/>
<path d="M0 0 C5.63666888 3.92956345 10.53944387 9.08317536 12.73828125 15.6796875 C13.66356697 26.22794474 12.30545487 34.03646298 7.73828125 43.6796875 C7.38894531 44.47117187 7.03960938 45.26265625 6.6796875 46.078125 C3.84239901 52.16842191 0.26455098 57.82603858 -3.26367188 63.53125 C-9.05685348 72.91212556 -14.65421569 82.40854758 -20.27197266 91.89501953 C-21.05235804 93.2125952 -21.83279397 94.53014093 -22.61328125 95.84765625 C-22.99953171 96.49972046 -23.38578217 97.15178467 -23.78373718 97.8236084 C-26.80568605 102.92077822 -29.85140052 108.0033956 -32.90357971 113.08250427 C-37.06875514 120.0167516 -41.19726324 126.97264838 -45.32421875 133.9296875 C-46.14809557 135.31804359 -46.97198911 136.70638976 -47.79589844 138.09472656 C-49.88096481 141.60848047 -51.96549329 145.12255316 -54.04986572 148.63671875 C-55.22625493 150.6199018 -56.40287837 152.60294566 -57.57958984 154.5859375 C-59.38700837 157.63184657 -61.19394056 160.67804358 -63.00045776 163.7244873 C-63.97410899 165.36626948 -64.9481071 167.00784592 -65.92211914 168.64941406 C-67.11380397 170.65985384 -68.30078375 172.673092 -69.48242188 174.68945312 C-70.73810593 176.79971909 -72.02657173 178.89064476 -73.33789062 180.96679688 C-73.99853516 182.03220703 -74.65917969 183.09761719 -75.33984375 184.1953125 C-75.94731445 185.15211914 -76.55478516 186.10892578 -77.18066406 187.09472656 C-78.51529162 189.53785486 -78.51529162 189.53785486 -77.7265625 191.61132812 C-77.00146484 192.63516602 -77.00146484 192.63516602 -76.26171875 193.6796875 C-75.58850586 194.67387695 -74.91529297 195.66806641 -74.22167969 196.69238281 C-73.8272467 197.25914734 -73.43281372 197.82591187 -73.02642822 198.40985107 C-67.15635002 206.88238565 -62.36956504 215.72912649 -57.76055908 224.93551636 C-56.47612299 227.50077899 -55.17975558 230.05971129 -53.88037109 232.61743164 C-52.13778134 236.04967949 -50.39916955 239.48388047 -48.66503906 242.92041016 C-39.10363129 261.86402614 -29.17136662 280.47147192 -18.26171875 298.6796875 C-17.32931088 300.25383742 -16.39701222 301.82805204 -15.46484375 303.40234375 C-8.239371 315.50673602 -0.30045043 327.10477479 7.73828125 338.6796875 C8.29757324 339.48954102 8.85686523 340.29939453 9.43310547 341.13378906 C32.74632712 374.86565773 60.18983193 401.31820159 101.70214844 409.06005859 C108.12506364 410.13776658 114.55359071 410.12491857 121.05078125 410.0546875 C122.05951294 410.04870544 122.05951294 410.04870544 123.08862305 410.04260254 C133.9077209 409.96765675 144.20370705 409.15841084 154.73828125 406.6796875 C156.64480469 406.26203125 156.64480469 406.26203125 158.58984375 405.8359375 C181.77523253 400.26760396 202.66200879 387.07962491 222.73828125 374.6796875 C223.5154248 374.20063965 224.29256836 373.7215918 225.09326172 373.22802734 C244.25382779 361.35562794 262.88435969 348.63753331 281.61572266 336.10546875 C288.26182047 331.65951099 294.91542982 327.22484686 301.56982422 322.7913208 C304.44275926 320.87707005 307.3151099 318.96194337 310.1875 317.046875 C311.24815674 316.33998535 312.30881348 315.6330957 313.40161133 314.90478516 C315.79052929 313.31229245 318.17811773 311.71782311 320.56518555 310.12255859 C370.73620837 276.6054087 370.73620837 276.6054087 391.73828125 278.6796875 C399.47018028 280.89914058 405.55324789 285.17102657 409.61328125 292.1796875 C413.08993492 299.74056538 413.01296296 307.9195523 410.30078125 315.7421875 C405.55727201 325.97296178 397.75933989 333.99281824 389.73046875 341.6953125 C387.52154048 343.84116481 385.49375543 346.08334918 383.48986816 348.42150879 C380.04845635 352.3740105 376.44103395 356.10614978 372.72070312 359.79492188 C371.72654137 360.78689323 371.72654137 360.78689323 370.71229553 361.79890442 C369.28718777 363.22023607 367.86092707 364.64041251 366.43360901 366.05952454 C364.16877308 368.31147806 361.90717975 370.56664446 359.6463623 372.82263184 C354.03338253 378.42231423 348.41495166 384.01651693 342.79669189 389.61090088 C338.03896066 394.34883457 333.28332803 399.08885625 328.53041077 403.83161926 C326.31298047 406.04261437 324.09253711 408.25055191 321.87194824 410.45837402 C320.49976918 411.82691723 319.12773218 413.19560291 317.75585938 414.56445312 C317.14682266 415.16832352 316.53778595 415.77219391 315.91029358 416.3943634 C312.21940842 420.08480002 308.73099859 423.90059298 305.33161926 427.86149597 C302.81472603 430.7335758 300.11477773 433.40808234 297.39453125 436.0859375 C296.82174438 436.65493774 296.24895752 437.22393799 295.65881348 437.81018066 C293.24888843 440.20401436 290.83293647 442.59172993 288.41748047 444.97998047 C279.53074161 453.75817159 279.53074161 453.75817159 271.16601562 463.02929688 C268.18029827 466.4806391 264.84506685 469.58717921 261.58203125 472.7734375 C258.7703807 475.58060614 256.19425977 478.57116337 253.59472656 481.57373047 C250.45055634 485.14048643 247.14652944 488.55398707 243.86328125 491.9921875 C238.59420977 497.54587809 233.56440427 503.151375 228.8046875 509.1484375 C226.56901575 511.88702973 224.20759867 514.46559179 221.80078125 517.0546875 C217.3275286 521.9214207 213.27787274 527.02898242 209.3046875 532.30078125 C207.57622384 534.59320688 205.81404407 536.85188212 204.015625 539.08984375 C193.52023216 552.1559143 184.64188287 565.90625776 176.73828125 580.6796875 C176.41150391 581.28264648 176.08472656 581.88560547 175.74804688 582.50683594 C149.90817588 630.5438375 139.56855383 684.58017561 130.3359375 737.73046875 C129.92896164 740.06780874 129.52144249 742.40505422 129.11328125 744.7421875 C128.92459473 745.82435547 128.7359082 746.90652344 128.54150391 748.02148438 C126.40181459 760.0095817 123.60979103 771.84865081 120.73828125 783.6796875 C64.8288434 801.18869295 4.92293763 808.90155334 -53.51171875 808.9296875 C-55.40505447 808.93069962 -55.40505447 808.93069962 -57.3366394 808.93173218 C-146.29567122 808.85644632 -233.89846278 786.67731079 -310.33227539 740.60449219 C-317.26444317 736.43094768 -324.25324802 732.43546713 -331.38671875 728.6171875 C-361.28514052 712.49822695 -389.80687973 693.66303004 -417.26171875 673.6796875 C-417.99922363 673.14504883 -418.73672852 672.61041016 -419.49658203 672.05957031 C-429.76844627 664.60031614 -439.86741373 656.9426888 -449.859375 649.11328125 C-453.44888667 646.30365023 -457.06990305 643.53872619 -460.70361328 640.78662109 C-468.00311691 635.25526801 -475.12530013 629.55075551 -482.17041016 623.69921875 C-487.83566052 619.00242086 -493.61878112 614.49994528 -499.47753906 610.04589844 C-502.25444167 607.91952364 -505.00753687 605.7628707 -507.76342773 603.609375 C-529.8003197 586.39894654 -552.19636604 569.97407442 -576.26171875 555.6796875 C-577.03225586 555.22078125 -577.80279297 554.761875 -578.59667969 554.2890625 C-600.06038779 541.62500913 -623.56774383 531.66642562 -648.26171875 527.6796875 C-649.04289062 527.54820312 -649.8240625 527.41671875 -650.62890625 527.28125 C-678.70155614 523.36167247 -706.80705414 531.32583523 -729.45458984 547.96972656 C-751.21561355 564.40524115 -766.2992135 587.70683898 -770.51171875 614.8671875 C-773.60900139 639.94964599 -765.98142702 663.88547996 -750.54077148 683.68261719 C-742.15106879 693.95469554 -732.2738591 703.02485054 -722.26171875 711.6796875 C-720.63275821 713.13359557 -719.00713696 714.59126482 -717.38671875 716.0546875 C-716.54625 716.81265625 -715.70578125 717.570625 -714.83984375 718.3515625 C-713.12109375 719.90364583 -711.40234375 721.45572917 -709.68359375 723.0078125 C-705.26050474 726.99673327 -700.8155687 730.95536657 -696.32421875 734.8671875 C-693.08796798 737.71116545 -689.89763207 740.60581451 -686.69921875 743.4921875 C-684.56754394 745.40522899 -682.42152765 747.29856362 -680.26171875 749.1796875 C-676.36659064 752.57221843 -672.53389112 756.03162951 -668.69921875 759.4921875 C-666.56754394 761.40522899 -664.42152765 763.29856362 -662.26171875 765.1796875 C-658.36659064 768.57221843 -654.53389112 772.03162951 -650.69921875 775.4921875 C-648.56754394 777.40522899 -646.42152765 779.29856362 -644.26171875 781.1796875 C-640.36659064 784.57221843 -636.53389112 788.03162951 -632.69921875 791.4921875 C-630.56754394 793.40522899 -628.42152765 795.29856362 -626.26171875 797.1796875 C-622.36659064 800.57221843 -618.53389112 804.03162951 -614.69921875 807.4921875 C-612.56754394 809.40522899 -610.42152765 811.29856362 -608.26171875 813.1796875 C-604.36659064 816.57221843 -600.53389112 820.03162951 -596.69921875 823.4921875 C-594.56754394 825.40522899 -592.42152765 827.29856362 -590.26171875 829.1796875 C-584.67191886 834.05111953 -579.18636977 839.038639 -573.68359375 844.0078125 C-569.10759528 848.1346332 -564.51178593 852.23342025 -559.85546875 856.26953125 C-558.61868885 857.36383895 -557.42943744 858.51196881 -556.26171875 859.6796875 C-556.41116948 862.82845971 -556.91369866 864.29982243 -559.0546875 866.63671875 C-574.34084789 878.48162281 -588.55786696 885.47094675 -608.26171875 883.6796875 C-633.48113059 880.39171176 -657.82909909 866.12777199 -678.26171875 851.6796875 C-678.96119629 851.19129395 -679.66067383 850.70290039 -680.38134766 850.19970703 C-690.96897926 842.79467402 -701.16110055 834.99423133 -710.95845032 826.56681824 C-713.27596339 824.62016229 -713.27596339 824.62016229 -715.93196106 822.80641174 C-723.66161205 817.1666332 -726.29007421 812.51418208 -728.30859375 803.28515625 C-728.60710739 802.08583969 -728.90562103 800.88652313 -729.21318054 799.65086365 C-729.85051297 797.07231385 -730.47243082 794.49525102 -731.07028198 791.90777588 C-732.022643 787.79176787 -733.03449099 783.69187027 -734.05883789 779.59326172 C-734.40782207 778.19513712 -734.75677522 776.79700477 -735.10569763 775.39886475 C-735.27912626 774.70432945 -735.45255489 774.00979416 -735.63123894 773.29421234 C-736.1577441 771.17758727 -736.67902349 769.05973732 -737.1988678 766.94146729 C-740.38787803 753.97188377 -743.95686927 741.12555675 -747.69921875 728.3046875 C-748.00323608 727.25952972 -748.30725342 726.21437195 -748.6204834 725.13754272 C-767.13287164 661.60605916 -786.47731526 597.88098712 -814.26171875 537.6796875 C-814.69758301 536.72046387 -815.13344727 535.76124023 -815.58251953 534.77294922 C-824.78358443 514.56951725 -835.62848619 495.66748065 -848.74804688 477.75390625 C-850.29391667 475.63556596 -851.81904872 473.50358809 -853.33984375 471.3671875 C-860.50132929 461.33066924 -867.91617639 451.50179569 -875.4140625 441.71484375 C-878.77105175 437.33130291 -882.0868203 432.91877193 -885.38671875 428.4921875 C-894.58650813 416.17573478 -904.11398037 404.10796005 -913.625 392.03125 C-915.3979905 389.7797293 -917.1658463 387.52431986 -918.9296875 385.265625 C-924.35004695 378.33148914 -929.85155915 371.47075794 -935.41650391 364.65209961 C-938.99533752 360.25970123 -942.52289833 355.83135059 -946.01171875 351.3671875 C-949.88578097 346.41186335 -953.81908726 341.51320749 -957.81640625 336.65625 C-960.81264433 333.00907201 -963.78737526 329.34472492 -966.76171875 325.6796875 C-971.91427723 319.33472826 -977.07592225 312.99753588 -982.26171875 306.6796875 C-983.03684814 305.73440186 -983.03684814 305.73440186 -983.82763672 304.77001953 C-985.59618002 302.6139609 -987.36608699 300.45903133 -989.13671875 298.3046875 C-989.73685791 297.57435303 -990.33699707 296.84401855 -990.95532227 296.09155273 C-994.18660073 292.16851253 -997.4467752 288.27458077 -1000.75585938 284.41699219 C-1011.67004342 271.67348593 -1023.1161247 257.71634625 -1022.56640625 239.97265625 C-1021.60698043 232.75236191 -1018.14078855 227.7566106 -1012.5546875 223.25 C-1002.79038102 216.56303032 -994.05524981 214.50721669 -982.33203125 216.0703125 C-967.16059314 219.27728316 -954.77140031 228.83186042 -942.60742188 237.92675781 C-939.46564509 240.27458851 -936.30645943 242.59842923 -933.14770508 244.92333984 C-931.55307109 246.09716538 -929.95916132 247.27197537 -928.3659668 248.44775391 C-892.7466045 274.73190988 -856.18488155 299.33845471 -818.13085938 321.96240234 C-815.59432267 323.48061194 -813.07334806 325.02031106 -810.55859375 326.57421875 C-796.77279241 335.02714991 -781.97746393 341.69785243 -766.26171875 345.6796875 C-765.11574219 345.97746094 -763.96976563 346.27523438 -762.7890625 346.58203125 C-730.1314216 353.91058148 -697.1366585 346.01227252 -669.22802734 328.39599609 C-637.1163419 307.24092533 -617.9500782 273.08784448 -597.26171875 241.6796875 C-596.86007507 241.07014221 -596.4584314 240.46059692 -596.0446167 239.83258057 C-592.4965614 234.44502625 -588.97630314 229.04168408 -585.50634766 223.60351562 C-584.24689046 221.65676735 -582.95186193 219.73783618 -581.6484375 217.8203125 C-580.87332932 216.64868126 -580.09856341 215.47682349 -579.32421875 214.3046875 C-578.67582031 213.34820313 -578.02742188 212.39171875 -577.359375 211.40625 C-575.87671623 207.72334673 -576.80466964 206.31855284 -578.26171875 202.6796875 C-579.3226314 200.71593514 -580.44463029 198.78442075 -581.61328125 196.8828125 C-582.29140869 195.77276855 -582.96953613 194.66272461 -583.66821289 193.51904297 C-584.40758306 192.3225097 -585.14708861 191.12606008 -585.88671875 189.9296875 C-586.65473564 188.67756499 -587.42222402 187.42511816 -588.18920898 186.17236328 C-590.15985313 182.95687113 -592.13761347 179.74582267 -594.11749268 176.53601074 C-595.87634602 173.68255335 -597.62934827 170.82552234 -599.3828125 167.96875 C-602.66911165 162.61808472 -605.96381015 157.27264208 -609.26025391 151.92822266 C-611.3099053 148.60147694 -613.35480809 145.27185428 -615.3984375 141.94140625 C-625.7731647 125.03876082 -636.32262156 108.25994002 -647.01171875 91.5546875 C-647.67848633 90.51248047 -648.34525391 89.47027344 -649.03222656 88.39648438 C-652.20858033 83.4352355 -655.38974516 78.4772441 -658.58734131 73.52966309 C-659.68874775 71.82480175 -660.78847888 70.11887167 -661.88769531 68.41259766 C-663.26650183 66.27338727 -664.64848089 64.13621714 -666.03417969 62.00146484 C-674.39804019 49.00845481 -679.9928127 36.51820227 -678.26171875 20.6796875 C-676.54650741 12.95584272 -672.82304159 8.02309839 -666.26171875 3.6796875 C-656.92029604 -1.42695691 -646.79102815 -3.02437438 -636.38671875 -0.2578125 C-619.22203789 5.62644618 -605.70335954 17.84439221 -594.02734375 31.39453125 C-590.25705002 35.72162995 -586.33845037 39.89366822 -582.38671875 44.0546875 C-577.3407174 49.39113936 -572.34141294 54.75634924 -567.453125 60.23828125 C-563.28539079 64.8814789 -559.03107633 69.44549887 -554.79248047 74.02392578 C-553.32259519 75.61383997 -551.85595816 77.20667182 -550.390625 78.80078125 C-533.65023422 97.05197108 -533.65023422 97.05197108 -516.26171875 114.6796875 C-513.41530537 113.61287254 -511.32907822 112.73430329 -508.94921875 110.8046875 C-501.41925124 104.8507597 -493.77064659 102.80306419 -484.26171875 103.6796875 C-476.12980319 105.65626935 -469.47896633 108.76217834 -464.88671875 115.9921875 C-460.17248201 126.59424734 -463.28012821 138.68866524 -466.97265625 149.05859375 C-468.2257154 152.57855082 -469.27030085 156.08000664 -470.26171875 159.6796875 C-464.73307759 165.29979514 -459.21613196 170.82932533 -453.2109375 175.9453125 C-451.02195481 177.89302455 -448.99363975 179.95598983 -446.94921875 182.0546875 C-442.03631107 187.01798398 -436.73775292 191.35573509 -431.26171875 195.6796875 C-430.26269531 196.49566406 -429.26367188 197.31164062 -428.234375 198.15234375 C-397.28827825 223.1112116 -360.0514674 232.85718648 -320.82421875 229.24609375 C-301.41911127 226.9821327 -282.70809828 220.27429007 -265.26171875 211.6796875 C-264.59172852 211.35355469 -263.92173828 211.02742187 -263.23144531 210.69140625 C-254.16340349 206.23069386 -246.155346 201.03814034 -238.26171875 194.6796875 C-237.33746094 193.9475 -236.41320313 193.2153125 -235.4609375 192.4609375 C-229.80597734 187.9177729 -224.3902205 183.15609502 -219.0625 178.234375 C-216.92063796 176.28071004 -214.7596515 174.36781214 -212.57015991 172.46887207 C-198.11493058 159.83181226 -184.59586954 146.16403849 -171.03515625 132.5859375 C-169.14822658 130.69968358 -167.26114962 128.81357792 -165.37393188 126.9276123 C-161.45436477 123.00984462 -157.53686615 119.09001797 -153.62060547 115.16894531 C-149.11491546 110.65778254 -144.60558857 106.15027916 -140.09442461 101.64459085 C-136.18302404 97.73774462 -132.27359548 93.82893311 -128.36577666 89.91850424 C-126.04790086 87.59908278 -123.72918614 85.28051299 -121.40906906 82.96333313 C-118.83066282 80.38747926 -116.25550483 77.80842007 -113.68115234 75.22851562 C-112.55271912 74.10311874 -112.55271912 74.10311874 -111.40148926 72.95498657 C-107.37835309 68.91584224 -103.53893109 64.77941014 -99.8158226 60.46243477 C-97.81116453 58.16284668 -95.70532322 55.98192531 -93.55834961 53.81518555 C-92.27552345 52.51794807 -92.27552345 52.51794807 -90.96678162 51.19450378 C-89.61037315 49.8317205 -89.61037315 49.8317205 -88.2265625 48.44140625 C-87.7539908 47.96600718 -87.28141911 47.4906081 -86.79452705 47.00080299 C-84.29123897 44.48263071 -81.78517081 41.96726641 -79.27661133 39.4543457 C-77.2328546 37.40621436 -75.19395042 35.3534425 -73.15942383 33.29614258 C-25.50018749 -14.88611981 -25.50018749 -14.88611981 0 0 Z " fill="#FEFEFE" transform="translate(1268.26171875,509.3203125)"/>
<path d="M0 0 C8.84126369 5.79216121 16.21004056 12.90458965 22.875 21.0625 C23.28943359 21.56458984 23.70386719 22.06667969 24.13085938 22.58398438 C54.93031082 59.98642118 79.52926349 102.30188495 104.04785156 143.96191406 C148.58923302 223.09834306 148.58923302 223.09834306 203.71484375 294.7265625 C205.49571186 296.65234755 207.204107 298.61021031 208.91064453 300.60083008 C213.22440769 305.53564329 217.82621838 310.15748125 222.46484375 314.78515625 C223.36819962 315.68946884 224.27155548 316.59378143 225.20228577 317.52549744 C227.10296068 319.42684943 229.00459608 321.32717553 230.90795898 323.22583008 C233.32618392 325.63835861 235.73988958 328.05535081 238.15227413 330.47371769 C240.48318401 332.80914575 242.81793956 335.14072177 245.15234375 337.47265625 C246.00779282 338.33012955 246.86324188 339.18760284 247.74461365 340.07106018 C252.63047888 344.93809023 257.63836711 349.57686567 262.875 354.0625 C264.48268373 355.51695517 266.08739715 356.97470895 267.6875 358.4375 C272.93696655 363.16840222 278.37326812 367.62975747 283.875 372.0625 C284.98492741 372.97589164 286.09427817 373.88998435 287.203125 374.8046875 C321.2934252 402.7420126 366.59096513 434.41636834 412.734375 431.84765625 C421.19736253 430.94090759 428.27313487 428.83456472 435.875 425.0625 C437.65003906 424.21171875 437.65003906 424.21171875 439.4609375 423.34375 C453.06500186 416.609694 465.16434026 408.1513322 472.75 394.75 C474.64428747 388.54094662 475.11268642 382.06211968 472.4375 376 C465.46542718 364.04787516 453.197375 354.76323184 442.8671875 345.8046875 C440.51479365 343.74749601 438.19465034 341.65653085 435.875 339.5625 C432.91630249 336.89201656 429.94573528 334.23951942 426.9375 331.625 C422.74335635 327.97312947 418.64405708 324.21983816 414.53515625 320.47265625 C411.68744205 317.89256864 408.80255982 315.36048144 405.90234375 312.83984375 C403.54010827 310.76890513 401.20704147 308.66737152 398.875 306.5625 C395.89437279 303.87266569 392.90254767 301.19939636 389.875 298.5625 C385.97987189 295.16996907 382.14717237 291.71055799 378.3125 288.25 C376.18082519 286.33695851 374.0348089 284.44362388 371.875 282.5625 C367.97987189 279.16996907 364.14717237 275.71055799 360.3125 272.25 C358.18082519 270.33695851 356.0348089 268.44362388 353.875 266.5625 C349.97987189 263.16996907 346.14717237 259.71055799 342.3125 256.25 C340.18082519 254.33695851 338.0348089 252.44362388 335.875 250.5625 C331.97987189 247.16996907 328.14717237 243.71055799 324.3125 240.25 C322.18082519 238.33695851 320.0348089 236.44362388 317.875 234.5625 C313.97987189 231.16996907 310.14717237 227.71055799 306.3125 224.25 C304.18082519 222.33695851 302.0348089 220.44362388 299.875 218.5625 C295.16212734 214.44463931 290.47737691 210.30403966 285.875 206.0625 C284.96234375 205.22847656 284.0496875 204.39445312 283.109375 203.53515625 C268.78594728 189.91189609 259.25719243 172.72371946 258.5402832 152.70874023 C258.18680316 132.23046309 266.20049132 114.23163265 280.33154297 99.58251953 C297.09466354 83.07394808 317.30181433 74.77981561 340.75 74.5625 C388.49199592 74.96903292 431.55604795 106.12946874 467.875 134.0625 C469.00104411 134.92221299 470.12733938 135.78159714 471.25390625 136.640625 C478.59409828 142.25036293 485.85745159 147.95761085 493.11328125 153.67578125 C494.85489788 155.04667682 496.59887885 156.41449991 498.34375 157.78125 C503.69483798 161.97446935 509.03270174 166.18153439 514.32958984 170.44311523 C520.92460494 175.74772593 527.5918123 180.94385549 534.32958984 186.06591797 C538.7680299 189.44209872 543.17450939 192.85514468 547.56152344 196.29785156 C556.44912274 203.26526672 565.49535058 209.97020502 574.69873047 216.51416016 C576.78359397 217.9974678 578.8628752 219.4883065 580.94140625 220.98046875 C611.2083727 242.62272138 642.85077092 261.83303648 675.33789062 279.93383789 C678.47812091 281.68932527 681.5905809 283.47869767 684.671875 285.3359375 C768.22179475 335.67840057 866.47327829 360.06359844 1108.875 337.0625 C1109.53101196 336.90070251 1110.18702393 336.73890503 1110.86291504 336.57220459 C1185.89470027 318.02799506 1258.99940529 289.01912692 1326.875 252.0625 C1327.85839355 251.52963379 1328.84178711 250.99676758 1329.85498047 250.44775391 C1346.4854815 241.41136674 1362.7207039 231.8486299 1378.83251953 221.92675781 C1381.42863144 220.3360091 1384.03455425 218.7656221 1386.65234375 217.2109375 C1396.06541045 211.60265267 1405.17964489 205.57982961 1414.25 199.4375 C1414.83910156 199.03944153 1415.42820312 198.64138306 1416.03515625 198.23126221 C1423.37426372 193.26335756 1430.53066487 188.1349825 1437.53369141 182.70166016 C1439.875 181.0625 1439.875 181.0625 1441.875 181.0625 C1441.28256873 184.46673005 1440.4266478 187.43271003 1439.046875 190.59765625 C1438.4756189 191.91358765 1438.4756189 191.91358765 1437.89282227 193.25610352 C1437.47444092 194.20283936 1437.05605957 195.1495752 1436.625 196.125 C1436.18534912 197.126521 1435.74569824 198.12804199 1435.29272461 199.15991211 C1423.18549021 226.57620727 1410.30357663 253.41772111 1395.38134766 279.41259766 C1393.6048388 282.53775603 1391.88559716 285.69138767 1390.1706543 288.85058594 C1380.16487672 307.22198652 1368.68089733 324.80424638 1356.875 342.0625 C1356.34084473 342.84512207 1355.80668945 343.62774414 1355.25634766 344.43408203 C1346.21458015 357.63680291 1336.6769179 370.41639314 1326.875 383.0625 C1326.34745117 383.74602539 1325.81990234 384.42955078 1325.27636719 385.13378906 C1319.14624724 393.06999611 1312.81501255 400.80563618 1306.28417969 408.41503906 C1304.85097461 410.0905879 1303.42850262 411.77476974 1302.0078125 413.4609375 C1295.13320303 421.59319544 1287.97611047 429.41669285 1280.66601562 437.15820312 C1278.86700883 439.07099661 1277.08013255 440.99439771 1275.296875 442.921875 C1266.13152603 452.82291677 1256.95333843 462.72981181 1246.66796875 471.48828125 C1244.82070371 473.1101719 1243.09743286 474.80910205 1241.375 476.5625 C1237.71229197 480.2743719 1233.83520571 483.67261518 1229.875 487.0625 C1228.82017618 487.96989364 1227.76550014 488.87745908 1226.7109375 489.78515625 C1223.70535564 492.3696683 1220.69323428 494.94643362 1217.67871094 497.52050781 C1215.96295684 498.98730572 1214.25082907 500.45824033 1212.5390625 501.9296875 C1205.72811124 507.76427237 1198.77187183 513.35201662 1191.61132812 518.75146484 C1189.80399644 520.11611208 1188.00348186 521.48944872 1186.203125 522.86328125 C1114.66479853 577.23605 1034.11010549 617.68520649 725.5 683.25 C724.15307068 683.24909363 724.15307068 683.24909363 722.77893066 683.24816895 C637.72453252 683.09557496 552.42564222 672.23171889 244.875 550.0625 C244.13121094 549.56572754 243.38742187 549.06895508 242.62109375 548.55712891 C221.57379247 534.44507151 201.36246399 519.25630811 181.875 503.0625 C181.36614258 502.64000977 180.85728516 502.21751953 180.33300781 501.78222656 C173.24136029 495.88042385 166.34058841 489.8145399 159.57421875 483.54296875 C157.37511253 481.52208243 155.14826473 479.56079037 152.875 477.625 C148.81211512 474.11229745 145.07708259 470.2947716 141.30786133 466.47387695 C138.48568488 463.62661847 135.6249171 460.90514827 132.5625 458.3125 C129.34109941 455.56541606 126.65362841 452.59000832 123.921875 449.36328125 C121.35298404 446.47573015 118.62531898 443.77605792 115.875 441.0625 C111.32466268 436.55593596 107.02355193 431.94412938 102.875 427.0625 C101.93624853 425.98579828 100.99599935 424.91040151 100.0546875 423.8359375 C87.68517217 409.69744232 75.76967565 395.23795038 64.49169922 380.21191406 C62.91123305 378.11067212 61.31736855 376.02012695 59.72265625 373.9296875 C14.35947284 313.92815112 -21.88409957 246.07274756 -49.125 176.0625 C-49.37080811 175.43077881 -49.61661621 174.79905762 -49.86987305 174.14819336 C-63.84484288 138.14692252 -75.73911427 101.43793828 -85.58532715 64.09820557 C-86.11972961 62.08238048 -86.66243837 60.06898134 -87.20800781 58.05615234 C-98.73625724 15.45250208 -98.73625724 15.45250208 -88.59765625 -2.78515625 C-69.93177867 -30.06605425 -22.30754189 -13.13287719 0 0 Z " fill="#1C5E9D" transform="translate(262.125,984.9375)"/>
<path d="M0 0 C0.66 0 1.32 0 2 0 C58.68332844 159.35016279 58.68332844 159.35016279 67.75 205.3125 C68.04849854 206.81417725 68.04849854 206.81417725 68.35302734 208.34619141 C71.97167452 227.53899906 72.43903301 246.51317961 72.4375 266 C72.43841141 266.71374786 72.43932281 267.42749573 72.44026184 268.16287231 C72.46810214 292.67565755 71.46219436 317.04958264 69.75 341.5 C69.69848156 342.24125122 69.64696312 342.98250244 69.59388351 343.74621582 C68.81965561 354.83841208 67.94513792 365.92110424 67 377 C66.93112202 377.80742771 66.86224403 378.61485542 66.79127884 379.44675064 C64.32231296 408.2240527 61.17716341 436.90851804 57.80102539 465.59204102 C57.31144256 469.76089311 56.82642331 473.93027077 56.34151268 478.0996685 C54.34263088 495.28597685 52.34021371 512.47236752 50.22265625 529.64453125 C50.1087706 530.57859299 49.99488495 531.51265472 49.87754822 532.47502136 C49.7217202 533.71872246 49.7217202 533.71872246 49.56274414 534.98754883 C49.47690567 535.67730301 49.3910672 536.36705719 49.30262756 537.07771301 C48.98560763 539.09142016 48.52331019 541.0307025 48 543 C3.62625577 542.237316 -41.14485725 534.7485 -83.46484375 521.37329102 C-84.19441284 521.14396126 -84.92398193 520.9146315 -85.67565918 520.67835236 C-87.45083432 520.12015577 -89.22547442 519.56025813 -91 519 C-91.01839432 518.17238663 -91.03678864 517.34477325 -91.05574036 516.49208069 C-91.29767226 505.68197061 -91.55217961 494.87218208 -91.8125 484.0625 C-91.83368645 483.17726025 -91.85487289 482.29202049 -91.87670135 481.37995529 C-92.36190782 461.16325789 -92.89402454 440.95275387 -93.80078125 420.75 C-93.83496532 419.98796265 -93.8691494 419.22592529 -93.90436935 418.4407959 C-94.075171 414.64780484 -94.24783356 410.85490007 -94.42089844 407.06201172 C-98.192919 324.14505755 -99.66464754 237.8842 -52 95 C-51.58250488 94.19933105 -51.16500977 93.39866211 -50.73486328 92.57373047 C-48.69935449 88.67307876 -46.64928558 84.78052367 -44.5859375 80.89453125 C-42.75661308 77.44468692 -40.95311125 73.98261868 -39.1640625 70.51171875 C-33.08212676 58.72633251 -26.75197657 47.12038471 -20.1796875 35.6015625 C-17.07975489 30.16298481 -14.06373873 24.68098638 -11.0625 19.1875 C-1.9663151 2.60348341 -1.9663151 2.60348341 0 0 Z " fill="#5AA844" transform="translate(1145,775)"/>
<path d="M0 0 C2.74834761 2.4549096 4.33745346 5.12342096 6.109375 8.33984375 C6.69976563 9.40396484 7.29015625 10.46808594 7.8984375 11.56445312 C8.50945313 12.67755859 9.12046875 13.79066406 9.75 14.9375 C10.95202305 17.11389022 12.15514634 19.28967315 13.359375 21.46484375 C13.9582251 22.54717285 14.5570752 23.62950195 15.17407227 24.74462891 C16.97929286 27.9630821 18.82986873 31.15046691 20.69921875 34.33203125 C63.71102403 107.70759203 64.97545382 211.28442917 80 352 C78.17416577 350.63062433 76.34850314 349.26102516 74.5234375 347.890625 C72.78111876 346.58523449 71.0361567 345.28336723 69.2890625 343.984375 C58.63930445 336.04702181 48.22653324 327.83623392 37.9375 319.4375 C32.18436369 314.74278183 26.36953782 310.15567656 20.46484375 305.65234375 C17.12199606 303.10181666 13.80815623 300.51496072 10.49462891 297.92651367 C4.6088509 293.33062416 -1.2853388 288.74690633 -7.25170898 284.25585938 C-8.57811396 283.25631559 -9.89932346 282.24983781 -11.21508789 281.23632812 C-14.36814042 278.83475774 -17.47255182 276.67863593 -20.96875 274.8046875 C-26.37543459 271.79624538 -30.6866716 268.99249843 -32.58203125 262.85546875 C-33.62772025 258.20587896 -34.13080789 253.51264899 -34.60058594 248.77490234 C-35.0718308 244.32111988 -35.67495165 239.89295568 -36.2890625 235.45703125 C-43.81066763 180.36651547 -40.61044827 133.31223564 -25 80 C-24.78069824 79.24968506 -24.56139648 78.49937012 -24.33544922 77.72631836 C-19.78755981 62.18206618 -15.00629857 46.70950026 -10.1809082 31.24951172 C-7.63716666 23.09439276 -5.15423147 14.92337284 -2.76293945 6.72216797 C-1.10686661 1.10686661 -1.10686661 1.10686661 0 0 Z " fill="#5FAB44" transform="translate(750,815)"/>
<path d="M0 0 C0.87527344 0.40605469 1.75054688 0.81210937 2.65234375 1.23046875 C11.09208365 5.35952371 17.44082135 11.40408811 24 18 C25.03833984 19.03833984 25.03833984 19.03833984 26.09765625 20.09765625 C41.74752976 36.88829502 47.72473027 58.42372653 47.2421875 80.8671875 C46.3674126 104.03573074 36.81970824 124.86620184 20 141 C-1.07163883 159.11038781 -23.45369539 164.64338816 -50.91796875 163.23486328 C-71.78841278 161.6444508 -91.98894669 148.86618258 -105.69775391 133.55224609 C-120.33108894 116.10966189 -127.91729045 92.67610183 -126 70 C-123.46007394 45.77567116 -112.36745653 25.67681957 -94.23046875 9.53515625 C-68.04349612 -11.42158655 -29.79151599 -15.80488877 0 0 Z " fill="#FEFEFE" transform="translate(975,477)"/>
<path d="M0 0 C0.66 0.33 1.32 0.66 2 1 C-9.7901345 15.29107212 -22.39028875 28.55770582 -37 40 C-38.21367063 40.99929393 -39.42440417 42.00216144 -40.6328125 43.0078125 C-50.08676227 50.85437931 -59.84944349 58.0822793 -70 65 C-70.71381836 65.48823242 -71.42763672 65.97646484 -72.16308594 66.47949219 C-145.51328823 116.48949528 -231.37662211 157.41214654 -318.13671875 177.796875 C-322.01575209 178.72049369 -325.82985212 179.81225293 -329.65625 180.93359375 C-336.97935658 183.0438661 -344.35563751 184.75039901 -351.8125 186.3125 C-352.50508911 186.45829498 -353.19767822 186.60408997 -353.91125488 186.75430298 C-428.63006342 202.40048628 -504.37782767 207.90197286 -588 197 C-588.99837891 196.86400391 -589.99675781 196.72800781 -591.02539062 196.58789062 C-621.59452864 192.2460592 -652.04349284 184.43242054 -681.078125 174.01464844 C-684.64145623 172.77724832 -688.24266342 171.7140178 -691.86206055 170.6550293 C-694.61231075 169.81239811 -697.23529706 168.76504562 -699.875 167.625 C-700.86757813 167.20089844 -701.86015625 166.77679687 -702.8828125 166.33984375 C-703.91148437 165.89769531 -704.94015625 165.45554687 -706 165 C-708.24893761 164.05995432 -710.49890459 163.12236668 -712.75 162.1875 C-714.5 161.45833333 -716.25 160.72916667 -718 160 C-714.94642326 159.06230452 -712.67861503 158.99593209 -709.52734375 159.453125 C-686.0704237 162.81625585 -662.60319371 165.40480895 -638.9375 166.6875 C-637.23040863 166.78230652 -637.23040863 166.78230652 -635.48883057 166.87902832 C-615.11379457 167.97981493 -594.77419878 168.27144571 -574.375 168.25 C-573.6900584 168.2496664 -573.00511681 168.24933281 -572.2994194 168.24898911 C-544.36479706 168.23069729 -516.53386705 167.45200317 -488.6875 165.1875 C-487.59269318 165.10007538 -486.49788635 165.01265076 -485.36990356 164.9225769 C-467.16128452 163.46099951 -449.08501859 161.58885274 -431 159 C-429.5861332 158.80038505 -428.1722323 158.60101146 -426.75830078 158.40185547 C-400.94900853 154.75610756 -375.26381174 150.67485321 -349.75 145.3125 C-348.72383575 145.09790131 -347.69767151 144.88330261 -346.64041138 144.66220093 C-321.12816989 139.31217327 -295.79238414 133.39814721 -270.92578125 125.53125 C-267.18836877 124.35139312 -263.43794594 123.29143243 -259.64746094 122.29760742 C-246.72941371 118.90472921 -234.17240806 114.34662014 -221.57585144 109.93325806 C-217.65675727 108.56332476 -213.72273521 107.25248557 -209.7734375 105.97265625 C-204.76045803 104.31429979 -199.92427826 102.35817283 -195.06787109 100.29003906 C-190.83232078 98.50899117 -186.54747892 96.86516265 -182.26171875 95.20947266 C-167.64914676 89.55599598 -153.26524002 83.48360901 -139 77 C-137.88125488 76.49210937 -136.76250977 75.98421875 -135.60986328 75.4609375 C-112.40745213 64.88982915 -89.54903577 53.82825563 -67.44140625 41.109375 C-63.16485313 38.65007336 -58.84873216 36.27926427 -54.50463867 33.94189453 C-41.98359856 27.19007104 -29.98206936 19.65911049 -18 12 C-16.66291992 11.14583496 -16.66291992 11.14583496 -15.29882812 10.27441406 C-7.25488565 5.63149436 -7.25488565 5.63149436 0 0 Z " fill="#FDFDFE" transform="translate(1473,1433)"/>
<path d="M0 0 C4.29768831 3.85663676 8.00027417 8.00111808 11.63671875 12.46875 C12.62671875 11.623125 13.61671875 10.7775 14.63671875 9.90625 C15.28511719 9.35710937 15.93351562 8.80796875 16.6015625 8.2421875 C17.89519016 7.11491887 19.16237011 5.95597651 20.390625 4.7578125 C30.77090969 -5.15166014 45.40822026 -10.6402814 59.63671875 -11.53125 C60.40886719 -11.58410156 61.18101562 -11.63695312 61.9765625 -11.69140625 C77.97391022 -12.24469798 93.48628994 -8.419313 106.07421875 1.78125 C121.05644591 16.18723765 124.78865956 35.70610826 125.18917179 55.62858391 C125.23276792 58.59871381 125.26203248 61.56873863 125.2890625 64.5390625 C125.316131 66.6355777 125.34385799 68.73208449 125.37220764 70.82858276 C125.4277053 75.1903631 125.4724905 79.55209194 125.51000977 83.9140625 C125.55935119 89.50182523 125.64025998 95.08864052 125.72952938 100.67588997 C125.79428397 104.99086468 125.84030924 109.30588703 125.88086128 113.62115097 C125.90290001 115.68250082 125.93127066 117.74379322 125.96613884 119.80496597 C126.01235409 122.67633312 126.03279876 125.54677609 126.04663086 128.41845703 C126.06564957 129.26523514 126.08466827 130.11201324 126.10426331 130.98445129 C126.09695071 135.02465797 125.94327232 136.98230647 123.73635864 140.48426819 C119.58595226 144.40703895 114.64731388 143.65159748 109.19921875 143.65625 C108.44833984 143.66849609 107.69746094 143.68074219 106.92382812 143.69335938 C102.78017085 143.70429251 99.27891015 143.6699292 95.63671875 141.46875 C92.1060882 137.01919738 92.21686731 133.08726649 92.26782227 127.66210938 C92.26217255 126.34634415 92.26217255 126.34634415 92.25640869 125.0039978 C92.24998318 123.1024838 92.25029972 121.20093766 92.2565937 119.29942322 C92.26572571 116.27919209 92.25545288 113.25957907 92.23997498 110.23937988 C92.1999529 101.65341145 92.19866066 93.06749153 92.20092773 84.48144531 C92.20097915 79.22355849 92.18164749 73.96600218 92.15159416 68.70820618 C92.14085915 65.7519814 92.15285008 62.79641285 92.16542053 59.84020996 C92.1422841 47.43051839 92.00038657 34.47475437 82.6796875 25.0546875 C75.54801771 19.51843906 66.73559627 18.0574914 57.9140625 18.65234375 C48.65254904 19.9158695 40.68096855 24.41260128 34.296875 31.234375 C24.57585724 44.31772125 22.19631047 58.47013984 22.22602844 74.32519341 C22.23055569 76.95280078 22.2163743 79.57975214 22.19763184 82.20729065 C22.15489813 88.72159642 22.14357159 95.2358837 22.13140869 101.75030518 C22.11988345 107.28134947 22.09636606 112.81208786 22.05671692 118.34300423 C22.04315697 120.92895004 22.0473125 123.51448128 22.05212402 126.10044861 C22.0427869 127.68212415 22.03261896 129.26379508 22.02148438 130.84545898 C22.03070671 131.92005371 22.03070671 131.92005371 22.04011536 133.01635742 C21.98951341 137.10473966 21.58440218 139.54338974 18.63671875 142.46875 C14.94456619 144.08033622 10.67126593 143.65262917 6.69921875 143.65625 C5.99603516 143.66849609 5.29285156 143.68074219 4.56835938 143.69335938 C0.49451138 143.70481349 -2.82705346 143.5753043 -6.36328125 141.46875 C-9.92243637 137.00352286 -9.78270801 133.00587887 -9.73217773 127.55444336 C-9.73782745 126.22163834 -9.73782745 126.22163834 -9.74359131 124.86190796 C-9.75001698 122.9358367 -9.74970013 121.00973373 -9.7434063 119.08366203 C-9.7342774 116.02590252 -9.74454315 112.96875391 -9.76002502 109.911026 C-9.80005879 101.21844429 -9.80133733 92.52591054 -9.79907227 83.83325195 C-9.7990209 78.51053262 -9.81832752 73.18814042 -9.84840584 67.86551094 C-9.85915497 64.86991142 -9.84714208 61.87495739 -9.83457947 58.87937927 C-9.8573203 46.5351191 -10.16884696 34.47546193 -19.3203125 25.08984375 C-26.35204357 19.51017187 -35.38565874 17.92532977 -44.15625 18.72265625 C-54.64656523 20.32875968 -62.13739411 24.67980672 -69.36328125 32.46875 C-81.85485957 49.66890551 -82.58818243 67.83916907 -82.35546875 88.44140625 C-82.3459489 89.82188839 -82.33735205 91.20237717 -82.32962036 92.58287048 C-82.29646496 98.37007867 -82.25398928 104.1571174 -82.19189453 109.9440918 C-82.15420793 113.51340251 -82.13122419 117.0825567 -82.11758804 120.65203667 C-82.10569425 122.6534599 -82.07752494 124.65476523 -82.04904175 126.65602112 C-82.04558746 127.87176315 -82.04213318 129.08750519 -82.03857422 130.34008789 C-82.02889618 131.4059462 -82.01921814 132.4718045 -82.00924683 133.56996155 C-82.41747959 136.91251902 -83.3796288 138.7713804 -85.36328125 141.46875 C-89.45965943 143.89731707 -93.72477914 143.77009873 -98.36328125 143.71875 C-99.06195312 143.72648437 -99.760625 143.73421875 -100.48046875 143.7421875 C-104.52927535 143.72690898 -107.7921722 143.43811161 -111.36328125 141.46875 C-113.64410295 138.04751746 -113.61928347 136.81119464 -113.63743591 132.78872681 C-113.64741104 131.60543289 -113.65738617 130.42213898 -113.66766357 129.20298767 C-113.66832825 127.90317459 -113.66899292 126.60336151 -113.66967773 125.26416016 C-113.67729849 123.88268078 -113.68572584 122.50120565 -113.69490051 121.11973572 C-113.71686073 117.36555698 -113.72564642 113.6114597 -113.73072696 109.85722399 C-113.73436872 107.51185545 -113.74060783 105.16650831 -113.74772835 102.82114792 C-113.7722281 94.63921927 -113.78527588 86.45735408 -113.78881836 78.27539062 C-113.79245412 70.64821651 -113.8223507 63.0214447 -113.86422294 55.39439356 C-113.89891052 48.84652438 -113.91436653 42.29878861 -113.91506439 35.75082815 C-113.91585774 31.8398271 -113.92462215 27.92923575 -113.95306206 24.01832962 C-113.97921703 20.33932379 -113.98146317 16.66106807 -113.96540642 12.9820118 C-113.96272415 10.98981651 -113.98479312 8.99763601 -114.00759888 7.00556946 C-113.9276569 -2.72908714 -113.9276569 -2.72908714 -110.94520569 -5.82290649 C-106.5884906 -8.70554931 -103.1110131 -8.70931615 -97.92578125 -8.78125 C-96.25708984 -8.81992188 -96.25708984 -8.81992188 -94.5546875 -8.859375 C-91.01068442 -8.49499769 -89.20452322 -7.63568677 -86.36328125 -5.53125 C-83.65431014 -1.95153817 -83.01597546 1.08723795 -82.36328125 5.46875 C-81.75742188 4.94925781 -81.1515625 4.42976563 -80.52734375 3.89453125 C-58.88678769 -14.11707002 -23.06195656 -18.95238359 0 0 Z " fill="#040707" transform="translate(1560.36328125,1886.53125)"/>
<path d="M0 0 C1.03253906 -0.01160156 2.06507812 -0.02320313 3.12890625 -0.03515625 C4.12792969 -0.03128906 5.12695312 -0.02742188 6.15625 -0.0234375 C7.06181641 -0.02005371 7.96738281 -0.01666992 8.90039062 -0.01318359 C12.17937366 0.47644667 13.89071824 1.31551693 16.5 3.375 C17.9201945 5.59864967 19.04202569 7.63193107 20.14453125 10.00390625 C20.64639702 11.04606041 20.64639702 11.04606041 21.15840149 12.10926819 C26.17483423 22.68930447 30.64271975 33.5246354 35.1875 44.3125 C36.97760333 48.54218047 38.77018703 52.77080831 40.5624485 56.99957466 C41.34518915 58.84714695 42.12724355 60.6950083 42.90910339 62.54295349 C47.5363817 73.47596901 52.20824891 84.38953183 56.89303589 95.29800415 C71.87993719 130.19889586 86.74055716 165.15308259 101.49853516 200.15136719 C101.88010269 201.05618835 102.26167023 201.96100952 102.65480042 202.89324951 C103.36135168 204.5689779 104.06769812 206.24479267 104.77378845 207.92071533 C105.09021805 208.6713324 105.40664764 209.42194946 105.73266602 210.1953125 C106.02983521 210.90122025 106.32700439 211.60712799 106.63317871 212.33442688 C107.20966463 213.69152514 107.79338672 215.0455729 108.38439941 216.39640808 C110.49760139 221.22722627 111.03105629 224.15294652 110.5 229.375 C105.64078067 232.61447955 100.27287176 231.70287526 94.5625 231.6875 C92.77295898 231.71166992 92.77295898 231.71166992 90.94726562 231.73632812 C89.80064453 231.73697266 88.65402344 231.73761719 87.47265625 231.73828125 C86.42343994 231.74126221 85.37422363 231.74424316 84.29321289 231.74731445 C81.02641284 231.31187436 79.79179344 230.72630031 77.5 228.375 C76.09057617 225.74414062 76.09057617 225.74414062 74.79296875 222.53125 C74.29563232 221.32041748 73.7982959 220.10958496 73.28588867 218.86206055 C72.75301084 217.53307308 72.22021679 216.20405202 71.6875 214.875 C70.84096152 212.79991987 69.99011866 210.72664011 69.13887024 208.65348816 C68.54000722 207.19471242 67.94244827 205.73540073 67.34611511 204.27558899 C65.06057049 198.69298276 62.70356678 193.14362947 60.3125 187.60546875 C59.96729813 186.80549469 59.62209625 186.00552063 59.26643372 185.18130493 C57.90328299 182.02547889 56.53836478 178.87043625 55.16903687 175.71728516 C54.21765918 173.52509048 53.27060061 171.3310737 52.32421875 169.13671875 C52.03736206 168.47979538 51.75050537 167.82287201 51.45495605 167.14604187 C49.5 162.60191007 49.5 162.60191007 49.5 160.375 C16.83 160.375 -15.84 160.375 -49.5 160.375 C-49.83 162.025 -50.16 163.675 -50.5 165.375 C-50.96438233 166.68170755 -51.46984139 167.97455201 -52.01538086 169.24951172 C-52.32371353 169.97646744 -52.6320462 170.70342316 -52.94972229 171.45240784 C-53.28471237 172.22866013 -53.61970245 173.00491241 -53.96484375 173.8046875 C-54.3140538 174.62424423 -54.66326385 175.44380096 -55.02305603 176.28819275 C-56.15632287 178.94424625 -57.29655428 181.59723701 -58.4375 184.25 C-59.21591504 186.06719116 -59.99407204 187.88449287 -60.77197266 189.7019043 C-62.30755096 193.28703098 -63.84625858 196.87079176 -65.38720703 200.45361328 C-67.18648323 204.63944412 -68.9693554 208.83190056 -70.74609375 213.02734375 C-71.6219593 215.08091541 -72.49821716 217.13431982 -73.375 219.1875 C-73.76034912 220.10321777 -74.14569824 221.01893555 -74.54272461 221.96240234 C-74.89729736 222.78562988 -75.25187012 223.60885742 -75.6171875 224.45703125 C-75.91222168 225.15030518 -76.20725586 225.8435791 -76.51123047 226.55786133 C-77.66888464 228.68537244 -78.52789856 229.94330132 -80.5 231.375 C-83.27148438 231.76318359 -83.27148438 231.76318359 -86.59375 231.7734375 C-87.78871094 231.77730469 -88.98367188 231.78117187 -90.21484375 231.78515625 C-91.46394531 231.77355469 -92.71304687 231.76195312 -94 231.75 C-95.24910156 231.76160156 -96.49820312 231.77320313 -97.78515625 231.78515625 C-99.57759766 231.77935547 -99.57759766 231.77935547 -101.40625 231.7734375 C-102.50259766 231.77005371 -103.59894531 231.76666992 -104.72851562 231.76318359 C-107.5 231.375 -107.5 231.375 -109.38085938 230.22509766 C-111.00936904 227.53294098 -110.69021307 225.48758826 -110.5 222.375 C-109.65983582 219.70584106 -109.65983582 219.70584106 -108.46948242 216.98486328 C-107.80786858 215.44897049 -107.80786858 215.44897049 -107.13288879 213.88204956 C-106.64946518 212.78917633 -106.16604156 211.6963031 -105.66796875 210.5703125 C-104.64885285 208.21650293 -103.62981171 205.86266099 -102.61083984 203.50878906 C-102.08971619 202.31564087 -101.56859253 201.12249268 -101.03167725 199.89318848 C-98.73082028 194.60823143 -96.48643438 189.29971807 -94.23828125 183.9921875 C-93.3508477 181.90595335 -92.46290041 179.81993766 -91.57446289 177.73413086 C-91.12507355 176.67902313 -90.6756842 175.62391541 -90.212677 174.53683472 C-89.75061859 173.45217926 -89.28856018 172.3675238 -88.8125 171.25 C-88.32876923 170.11434601 -87.84503845 168.97869202 -87.34664917 167.80862427 C-71.08929731 129.64691443 -54.76982196 91.51154107 -38.26855469 53.45458984 C-36.17699023 48.63074028 -34.08825298 43.80566745 -32.00047302 38.98017883 C-30.60893232 35.76467708 -29.21527679 32.5501364 -27.81567383 29.33813477 C-25.60709045 24.26515789 -23.40969773 19.19209051 -21.31640625 14.0703125 C-21.00131104 13.31145752 -20.68621582 12.55260254 -20.36157227 11.77075195 C-19.58361705 9.88968313 -18.82205714 8.00185404 -18.0625 6.11328125 C-13.98626373 -1.03032281 -7.37766963 -0.08289516 0 0 Z M0.5 45.375 C-6.01502065 58.89061506 -11.86249737 72.69604216 -17.75640869 86.4901123 C-18.8295964 88.99955296 -19.90591567 91.50764495 -20.98226261 94.01573181 C-22.293423 97.07219131 -23.60168205 100.12988956 -24.91015625 103.1875 C-25.38219986 104.28795654 -25.85424347 105.38841309 -26.34059143 106.5222168 C-29.85807138 114.76218083 -33.17006354 123.05015886 -36.5 131.375 C-12.41 131.375 11.68 131.375 36.5 131.375 C34.0294001 123.92805428 34.0294001 123.92805428 31.21484375 116.6640625 C30.7751123 115.60445312 30.33538086 114.54484375 29.88232422 113.453125 C29.40553223 112.31359375 28.92874023 111.1740625 28.4375 110 C27.93234863 108.78570313 27.42719727 107.57140625 26.90673828 106.3203125 C25.10984033 102.00296893 23.30512533 97.68890875 21.5 93.375 C21.13171082 92.49453003 20.76342163 91.61406006 20.38397217 90.70690918 C16.74832557 82.01516675 13.11187781 73.32376136 9.46850586 64.63525391 C9.08807632 63.72772369 8.70764679 62.82019348 8.31568909 61.88516235 C7.59894849 60.17552204 6.88187649 58.46602061 6.16441345 56.75668335 C4.57895052 52.97445881 3.00617149 49.18974076 1.5 45.375 C1.17 45.375 0.84 45.375 0.5 45.375 Z " fill="#040707" transform="translate(1180.5,1797.625)"/>
<path d="M0 0 C2.3738606 2.71370817 2.6726765 4.51452834 2.828125 8.08984375 C1.08472337 15.21062055 -2.95662923 23.87459798 -8.171875 29.08984375 C-12.44337974 30.00228238 -16.54601438 30.08000751 -20.33984375 27.76953125 C-21.78626013 26.5592091 -23.22037495 25.33409423 -24.64453125 24.09765625 C-40.00195985 11.89716429 -61.11033157 8.64447465 -80.171875 10.08984375 C-92.95667007 11.82323197 -106.1218568 16.52419487 -114.171875 27.08984375 C-119.16006656 34.37913559 -119.07274042 42.5363637 -118.171875 51.08984375 C-116.45650446 58.24668774 -111.01414755 62.9878226 -105.171875 67.08984375 C-90.66849864 75.76137626 -73.4436674 79.22954331 -57.32421875 83.71875 C-33.27642286 90.43493733 -6.80487707 98.09997949 6.42578125 121.26171875 C13.70256922 135.93691232 14.36309059 154.14648719 10.203125 169.96484375 C4.74952934 185.4735064 -4.60887934 197.25297744 -19.171875 205.08984375 C-20.02265625 205.55003906 -20.8734375 206.01023437 -21.75 206.484375 C-49.81781726 220.39223056 -87.73850741 217.87881412 -116.8046875 208.66796875 C-130.94858273 203.85316469 -146.32311723 196.58572466 -155.171875 184.08984375 C-155.65345762 176.22399436 -150.23279046 168.78451703 -145.3984375 162.94921875 C-142.29661108 159.94564023 -142.29661108 159.94564023 -140.171875 159.08984375 C-134.68869237 159.26733405 -131.86960935 160.6532993 -127.734375 164.15234375 C-117.19728956 172.42395582 -105.18658712 177.91552372 -92.171875 181.08984375 C-91.28113281 181.31414062 -90.39039062 181.5384375 -89.47265625 181.76953125 C-72.03235374 185.40189097 -52.00687449 184.80423475 -36.4765625 175.62109375 C-29.87519743 171.23510204 -24.97274556 164.70691563 -22.859375 157.02734375 C-21.34326671 148.3441781 -22.45120473 142.39025805 -27.109375 135.02734375 C-37.36322842 123.89889695 -54.49122031 120.49815782 -68.5859375 116.92578125 C-69.34178635 116.73388214 -70.09763519 116.54198303 -70.87638855 116.3442688 C-74.68659218 115.38057552 -78.49984006 114.43334559 -82.32055664 113.51220703 C-106.61818489 107.56172259 -130.54570702 97.35086615 -145.171875 76.08984375 C-147.21714365 72.52596313 -148.78904759 68.95633764 -150.171875 65.08984375 C-150.49027344 64.20167969 -150.80867188 63.31351563 -151.13671875 62.3984375 C-155.81056496 46.91228346 -154.23760246 29.81293103 -147.046875 15.46484375 C-136.95760525 -2.14933968 -120.05488727 -12.69718219 -100.87890625 -18.1953125 C-66.43054828 -27.37550256 -28.54573505 -21.77763335 0 0 Z " fill="#040707" transform="translate(214.171875,1816.91015625)"/>
<path d="M0 0 C12.64514472 10.56649079 21.21771123 26.02971406 24.53125 42.09375 C24.758125 43.186875 24.985 44.28 25.21875 45.40625 C27.07884754 67.35540092 22.15589466 86.31478999 8.47265625 103.7109375 C-5.43423049 120.02240181 -24.66495701 128.43927075 -45.77734375 130.296875 C-65.78249012 130.73735529 -84.60749317 123.07455136 -99.09375 109.42578125 C-99.8775 108.65621094 -100.66125 107.88664063 -101.46875 107.09375 C-102.17 106.41699219 -102.87125 105.74023438 -103.59375 105.04296875 C-117.71788809 90.39469272 -122.14425835 71.74624475 -122.01000977 51.96386719 C-121.34720298 30.70682708 -111.14345326 14.53631583 -96.3359375 0 C-68.60309837 -25.59954381 -28.24631055 -21.81044233 0 0 Z " fill="#FEFEFE" transform="translate(1445.46875,714.90625)"/>
<path d="M0 0 C1.59579319 1.33946105 3.18021381 2.69265215 4.75 4.0625 C5.36488281 4.58199219 5.97976563 5.10148438 6.61328125 5.63671875 C18.16539723 16.17968437 26.90237382 33.61510677 27.88720703 49.23925781 C28.7279755 69.53955164 25.4573003 89.28519459 11.66918945 105.08984375 C9.43999061 107.50119801 7.1157677 109.78422371 4.75 112.0625 C4.10546875 112.72636719 3.4609375 113.39023437 2.796875 114.07421875 C-10.55619554 126.99186307 -30.27496206 132.44918371 -48.39453125 132.27734375 C-68.52625216 131.15551533 -86.31356162 122.51760841 -100.25 108.0625 C-114.03627411 92.15697663 -120.70943763 73.12300413 -119.43457031 52.19775391 C-117.80922792 33.3945203 -108.96923257 15.94773667 -95.25 3.0625 C-67.24215127 -19.41652664 -28.91989782 -22.45953084 0 0 Z " fill="#FEFEFE" transform="translate(571.25,653.9375)"/>
<path d="M0 0 C3.02546493 2.65429585 5.85331209 5.46793037 8.6640625 8.34765625 C9.25703125 8.92 9.85 9.49234375 10.4609375 10.08203125 C23.87683995 24.07496176 28.69849183 45.6374729 28.9765625 64.34765625 C29.00314941 65.44352051 29.00314941 65.44352051 29.03027344 66.56152344 C29.02590726 69.68916195 28.85040732 71.98987419 27.39453125 74.78515625 C24.21446631 77.65654672 20.60662167 77.47209204 16.4755249 77.46791077 C15.42667114 77.46928543 14.37781738 77.4706601 13.29718018 77.47207642 C12.1520697 77.46848114 11.00695923 77.46488586 9.82714844 77.46118164 C8.61712158 77.46132767 7.40709473 77.46147369 6.16040039 77.46162415 C2.84666888 77.46104707 -0.46700024 77.45603352 -3.78072071 77.44905019 C-7.24539315 77.44279676 -10.71006644 77.44221127 -14.17474365 77.44102478 C-20.73365559 77.43791734 -27.29255085 77.42971185 -33.85145545 77.41967529 C-41.31936028 77.40849594 -48.78726591 77.40299911 -56.25517702 77.39797986 C-71.61544017 77.38752876 -86.97568668 77.36994066 -102.3359375 77.34765625 C-101.24523034 79.59014716 -100.14801553 81.82904461 -99.046875 84.06640625 C-98.74128662 84.69643555 -98.43569824 85.32646484 -98.12084961 85.97558594 C-92.77891194 96.78648225 -85.01495336 103.50161335 -73.64648438 107.49145508 C-57.65792365 112.84246532 -39.53715201 113.72216231 -23.82421875 106.80078125 C-18.91257043 104.26935019 -14.49600903 101.70258428 -10.4609375 97.91015625 C-8.0561015 95.72340587 -7.32328533 95.34484466 -3.9609375 94.59765625 C4.04913207 96.25491202 10.11349907 101.95015122 15.2265625 108.125 C16.6640625 110.34765625 16.6640625 110.34765625 17.2890625 113.84765625 C11.78568352 125.70108789 -3.33606604 132.59158048 -15.0234375 137.16015625 C-42.40161031 146.22496514 -72.21376678 143.9742171 -97.9609375 131.22265625 C-105.08379897 127.23559111 -110.62973398 122.10435715 -116.3359375 116.34765625 C-117.00367188 115.7134375 -117.67140625 115.07921875 -118.359375 114.42578125 C-132.57995384 99.88346986 -135.96799261 79.1164611 -135.8046875 59.69335938 C-135.24672073 38.03727429 -127.91222483 20.37012003 -112.3359375 5.34765625 C-111.70300781 4.68378906 -111.07007813 4.01992187 -110.41796875 3.3359375 C-84.37477685 -22.24733048 -27.54501363 -22.85113505 0 0 Z M-93.44140625 29.859375 C-97.42554472 35.09215069 -102.3359375 42.67914633 -102.3359375 49.34765625 C-69.9959375 49.34765625 -37.6559375 49.34765625 -4.3359375 49.34765625 C-9.06427447 35.16264534 -14.93911016 25.99934165 -28.3984375 18.97265625 C-49.36171944 8.67793069 -77.2574833 12.88438453 -93.44140625 29.859375 Z " fill="#040707" transform="translate(394.3359375,1890.65234375)"/>
<path d="M0 0 C1.37048902 1.29511212 2.7175093 2.61769281 4 4 C4.01417969 3.33613281 4.02835938 2.67226562 4.04296875 1.98828125 C4.29526847 -2.68267307 4.4411146 -5.27933198 7.375 -9.0625 C11.808423 -12.33478841 15.99564846 -12.2756196 21.3125 -12.375 C22.05951172 -12.41238281 22.80652344 -12.44976563 23.57617188 -12.48828125 C24.67735352 -12.50568359 24.67735352 -12.50568359 25.80078125 -12.5234375 C26.79331909 -12.5531665 26.79331909 -12.5531665 27.8059082 -12.58349609 C31.45303815 -11.61357948 33.89328272 -10.08596314 36 -7 C36.92073014 -2.53103498 36.79835938 1.8988426 36.74462891 6.44750977 C36.74948744 7.83091323 36.75692873 9.21430967 36.76675415 10.59768677 C36.78554272 14.34791582 36.76674985 18.09709826 36.74008989 21.84724545 C36.71743471 25.77315986 36.72567779 29.69902373 36.72958374 33.62498474 C36.73134869 40.21655351 36.70920767 46.80771052 36.67236328 53.39916992 C36.63001121 61.01958375 36.62301225 68.63939484 36.6354872 76.25990254 C36.64687617 83.59252286 36.63558256 90.92493096 36.61314011 98.25752068 C36.60385195 101.3774807 36.60209866 104.49731086 36.6063118 107.61728096 C36.61007911 111.29058266 36.59386028 114.96327084 36.56219101 118.63643265 C36.54965858 120.62752162 36.55671996 122.61870364 36.56433105 124.6098175 C36.55016144 125.79448608 36.53599182 126.97915466 36.52139282 128.19972229 C36.51523421 129.74412412 36.51523421 129.74412412 36.50895119 131.31972599 C35.86716294 134.69955574 34.64525749 135.87159457 32 138 C25.15411011 140.74083635 17.10390599 140.56118288 10 139 C6.8125 137.125 6.8125 137.125 5 134 C4.328919 130.32970313 4.0718018 126.72716593 4 123 C3.4121875 123.61875 3.4121875 123.61875 2.8125 124.25 C-10.62200488 137.22124609 -30.57486862 142.96567217 -48.90869141 143.0390625 C-72.25547112 142.60297976 -92.79536986 136.58464346 -110 120 C-127.9724322 99.53297153 -131.38341008 76.30857504 -130 50 C-128.44743388 35.14457227 -120.98187164 20.02442268 -111 9 C-110.41992188 8.32839844 -109.83984375 7.65679688 -109.2421875 6.96484375 C-81.96314722 -22.65403053 -31.39714488 -21.13633097 0 0 Z M-87 29 C-97.7852032 42.01108556 -100.27785573 56.52708331 -99 73 C-96.98961809 84.42042255 -91.41453554 95.12814526 -82.27734375 102.44140625 C-68.00695246 112.20793477 -51.86180476 114.98112193 -35 111.875 C-21.64383515 108.69776255 -10.73374495 101.87756803 -2.625 90.6875 C4.39013059 79.2009689 6.37225372 66.03426417 3.9375 52.875 C0.62354329 39.64876204 -5.59444167 29.32888267 -17.265625 21.9296875 C-38.63066791 10.48070711 -69.48002343 9.71076471 -87 29 Z " fill="#040707" transform="translate(747,1890)"/>
<path d="M0 0 C1.50530273 -0.00290039 1.50530273 -0.00290039 3.04101562 -0.00585938 C4.5965918 0.02991211 4.5965918 0.02991211 6.18359375 0.06640625 C7.22451172 0.05544922 8.26542969 0.04449219 9.33789062 0.03320312 C16.95769458 0.10670606 16.95769458 0.10670606 19.74403763 2.29999924 C22.09724433 5.2196773 22.12674933 6.70681271 22.14007568 10.42486572 C22.15398849 11.60834595 22.16790131 12.79182617 22.18223572 14.01116943 C22.17720535 15.30589172 22.17217499 16.60061401 22.16699219 17.93457031 C22.1757281 19.31446498 22.18621395 20.69434952 22.19831848 22.07421875 C22.22619758 25.81774464 22.22958277 29.56094031 22.22859859 33.30455494 C22.23172609 37.2177401 22.25734084 41.13077617 22.28057861 45.04388428 C22.32115481 52.45276944 22.34148308 59.86156655 22.35455251 67.27054572 C22.37041711 75.70586535 22.40883041 84.14103503 22.44914579 92.57626772 C22.53156685 109.9271025 22.58564512 127.27791324 22.62109375 144.62890625 C23.4182782 143.82302063 23.4182782 143.82302063 24.23156738 143.00085449 C24.93825562 142.28965454 25.64494385 141.57845459 26.37304688 140.84570312 C27.06950317 140.14344604 27.76595947 139.44118896 28.48352051 138.71765137 C30.46143558 136.78491738 32.48963269 134.95809265 34.58984375 133.16015625 C38.99312557 129.36748577 43.05096299 125.27317419 47.12109375 121.12890625 C51.84103914 116.32298735 56.61553484 111.70450948 61.72363281 107.3125 C65.3035246 104.13610606 68.57356845 100.64434962 71.86328125 97.171875 C72.394375 96.62660156 72.92546875 96.08132813 73.47265625 95.51953125 C73.93494629 95.03516602 74.39723633 94.55080078 74.87353516 94.05175781 C79.36927096 90.3913571 83.43187667 89.24792237 89.15625 89.23046875 C90.98833008 89.22466797 90.98833008 89.22466797 92.85742188 89.21875 C94.75137695 89.23615234 94.75137695 89.23615234 96.68359375 89.25390625 C97.95009766 89.24230469 99.21660156 89.23070312 100.52148438 89.21875 C101.74158203 89.22261719 102.96167969 89.22648437 104.21875 89.23046875 C105.32742432 89.23385254 106.43609863 89.23723633 107.57836914 89.24072266 C110.9913355 89.67614081 112.88363765 90.5735734 115.62109375 92.62890625 C116.88076029 95.62061429 116.8742418 96.98759785 115.68359375 100.00390625 C113.43522623 102.86546491 111.0286884 105.01193991 108.25390625 107.3515625 C104.83127549 110.31208733 101.54360575 113.40541034 98.24609375 116.50390625 C94.07156759 120.41816369 89.88982442 124.3170297 85.62109375 128.12890625 C80.73343092 132.49521837 75.95488004 136.97371844 71.17260742 141.45458984 C66.72371977 145.61701973 62.2282207 149.71687991 57.671875 153.76171875 C55.58929958 155.65785409 53.59671318 157.62206935 51.62109375 159.62890625 C54.11674626 162.1540743 56.61841826 164.67319998 59.12109375 167.19140625 C60.16523437 168.24811523 60.16523437 168.24811523 61.23046875 169.32617188 C65.2957566 173.4102805 69.46020918 177.29432775 73.82617188 181.05444336 C76.2038355 183.14007349 78.41528935 185.36348551 80.62109375 187.62890625 C83.51701333 190.56008816 86.42351946 193.39293799 89.55859375 196.06640625 C93.42727173 199.37236743 96.9817368 202.96035303 100.55224609 206.57958984 C103.76992651 209.8240378 107.10531553 212.84417494 110.578125 215.80859375 C114.77971163 219.55226367 118.67375084 223.62114483 122.62109375 227.62890625 C123.37003906 228.31339844 124.11898437 228.99789063 124.890625 229.703125 C126.62109375 231.62890625 126.62109375 231.62890625 127.05859375 235.25390625 C126.91421875 236.36765625 126.76984375 237.48140625 126.62109375 238.62890625 C121.62110099 241.96223475 115.59631924 241.11854041 109.73510742 241.16430664 C107.45750268 241.19112473 105.1846288 241.2659901 102.90820312 241.34179688 C90.68724924 241.56560136 90.68724924 241.56560136 86.03125 237.51953125 C84.86840429 236.24603051 83.73073863 234.94902084 82.62109375 233.62890625 C81.39879591 232.48155222 80.16170576 231.34974808 78.91015625 230.234375 C77.6871791 229.09679441 76.4658512 227.95743845 75.24609375 226.81640625 C74.59761475 226.21111084 73.94913574 225.60581543 73.28100586 224.98217773 C68.68606246 220.67445391 64.22528525 216.25987403 59.80078125 211.77734375 C57.86183721 209.86619819 55.88127103 208.07947198 53.80859375 206.31640625 C49.43649108 202.58282568 45.45341818 198.48792395 41.41455078 194.40283203 C37.90407235 190.86775463 34.33089127 187.4799905 30.5 184.2890625 C28.7644856 182.75560383 27.13684853 181.16607902 25.50366211 179.52514648 C24.9637413 178.9832518 24.4238205 178.44135712 23.86753845 177.88304138 C23.4562117 177.46917679 23.04488495 177.05531219 22.62109375 176.62890625 C22.61744812 177.38645706 22.61380249 178.14400787 22.61004639 178.92451477 C22.57219114 186.06119891 22.51536783 193.19735959 22.43719101 200.33370686 C22.39766867 204.00268159 22.36550401 207.67141463 22.35009766 211.34057617 C22.33496166 214.8810947 22.30057262 218.42094898 22.25278473 221.9611721 C22.2307102 223.97021278 22.22861738 225.97944061 22.22674561 227.98860168 C22.20702698 229.20964096 22.18730835 230.43068024 22.16699219 231.6887207 C22.15366852 233.30421562 22.15366852 233.30421562 22.14007568 234.9523468 C21.62109375 237.62890625 21.62109375 237.62890625 19.74908447 239.47392273 C15.43820297 241.8136872 10.41150226 241.14020438 5.62109375 241.12890625 C4.52796875 241.15726563 3.43484375 241.185625 2.30859375 241.21484375 C1.25671875 241.21742188 0.20484375 241.22 -0.87890625 241.22265625 C-2.3175 241.23329102 -2.3175 241.23329102 -3.78515625 241.24414062 C-6.37890625 240.62890625 -6.37890625 240.62890625 -8.50884914 238.67166138 C-11.08519538 234.47970879 -10.93896214 231.16001152 -10.89356995 226.32958984 C-10.90051547 225.38962851 -10.907461 224.44966717 -10.914617 223.48122215 C-10.93292208 220.32968842 -10.92261276 217.17890445 -10.91235352 214.02734375 C-10.91941015 211.76873205 -10.92815408 209.51012508 -10.9384613 207.25152588 C-10.96099232 201.11524103 -10.95800698 194.97921364 -10.94913983 188.84290314 C-10.94403581 183.72332947 -10.95131767 178.60380443 -10.95861191 173.48423576 C-10.97659531 160.71873863 -10.97018813 147.95342194 -10.9524421 135.18794036 C-10.93774294 124.10144124 -10.95237668 113.01521307 -10.98121227 101.92874885 C-11.01060399 90.54365454 -11.02107107 79.15872014 -11.01203007 67.77357674 C-11.00709399 61.38223631 -11.00935365 54.99110658 -11.02981758 48.59979248 C-11.04813391 42.59145418 -11.04226507 36.5836207 -11.01761818 30.57530975 C-11.01259774 28.36820479 -11.0161318 26.16106163 -11.02876663 23.95398712 C-11.04463266 20.9448138 -11.02980656 17.937316 -11.00709534 14.92822266 C-11.02484893 13.6128077 -11.02484893 13.6128077 -11.04296118 12.27081871 C-10.97552577 7.88414963 -10.79108139 6.15661993 -8.00311184 2.58714294 C-5.03620553 0.37317586 -3.6574444 -0.00290812 0 0 Z " fill="#040707" transform="translate(846.37890625,1788.37109375)"/>
<path d="M0 0 C0.82951172 -0.020625 1.65902344 -0.04125 2.51367188 -0.0625 C7.87051864 -0.09632382 12.03449016 0.31369068 16.6875 3.25 C17.73074341 4.86323547 17.73074341 4.86323547 18.63720703 6.78637695 C18.97594345 7.5034079 19.31467987 8.22043884 19.66368103 8.959198 C21.39307259 12.82872354 23.03399083 16.72880314 24.63671875 20.65234375 C25.00698181 21.55166122 25.37724487 22.4509787 25.75872803 23.37754822 C26.55375016 25.30948919 27.34742306 27.24198584 28.13986206 29.17498779 C29.39055653 32.2254425 30.64505667 35.27430634 31.90063477 38.32275391 C33.6348292 42.53384877 35.3678167 46.74543638 37.09960938 50.95751953 C40.73360084 59.79497384 44.37314709 68.63011005 48.02432251 77.46047974 C49.10346279 80.07286272 50.17909496 82.68667178 51.25463867 85.30053711 C51.91825835 86.90616937 52.58206632 88.51172383 53.24609375 90.1171875 C53.68245148 91.18150246 53.68245148 91.18150246 54.12762451 92.26731873 C56.10932169 97.04354033 58.33365737 101.64534163 60.6875 106.25 C64.25369899 98.06410815 67.81590395 89.87648253 71.375 81.6875 C71.63822681 81.08189114 71.90145363 80.47628227 72.17265701 79.85232162 C78.57351922 65.12364529 84.95128462 50.38802326 91.125 35.5625 C92.97808118 31.12454572 94.83152289 26.68674406 96.6875 22.25 C97.09516602 21.27530762 97.50283203 20.30061523 97.92285156 19.29638672 C99.01914452 16.69189621 100.13099277 14.09479554 101.25 11.5 C101.6984729 10.42552612 101.6984729 10.42552612 102.15600586 9.3293457 C103.7654918 5.64926281 105.11222803 3.19890065 108.6875 1.25 C113.13927328 -0.09186319 117.51341706 0.06599627 122.125 0.0625 C123.3944043 0.04413086 123.3944043 0.04413086 124.68945312 0.02539062 C129.10606446 0.01501487 132.71825543 0.07035703 136.6875 2.25 C138.6875 4.25 138.6875 4.25 138.97802734 7.44384766 C138.66277852 11.57387213 137.70244214 14.36527899 136.0390625 18.1484375 C135.61367943 19.13031036 135.61367943 19.13031036 135.17970276 20.13201904 C134.23603602 22.30184614 133.27438659 24.46319535 132.3125 26.625 C131.63340153 28.17643082 130.9554492 29.72836378 130.27856445 31.28076172 C128.46628189 35.42886989 126.63869312 39.57006816 124.80828857 43.71020508 C122.96790484 47.88065914 121.14268895 52.05773169 119.31640625 56.234375 C115.5587489 64.82148393 111.7853012 73.40158047 108.0078125 81.97998047 C104.12526252 90.79697965 100.24931706 99.61688058 96.375 108.4375 C95.99596527 109.30030579 95.61693054 110.16311157 95.22640991 111.05206299 C90.00409226 122.94200515 84.81769728 134.84660356 79.66772461 146.76806641 C76.53443046 154.01248989 73.37798222 161.24634392 70.203125 168.47265625 C69.81276062 169.36131378 69.42239624 170.24997131 69.02020264 171.16555786 C67.04522013 175.65974365 65.06721994 180.15257355 63.08496094 184.64355469 C59.90584635 191.85425316 56.73271581 199.06092349 53.75 206.35546875 C53.34555664 207.33829834 52.94111328 208.32112793 52.52441406 209.33374023 C51.83436607 211.02646578 51.15760343 212.72471658 50.49902344 214.42993164 C48.60572715 219.0680919 46.44695671 223.0951906 41.6875 225.25 C37.97447513 225.89644772 34.38363926 225.8591618 30.625 225.75 C29.64466797 225.75257813 28.66433594 225.75515625 27.65429688 225.7578125 C23.67114416 225.70373032 20.30533357 225.45013259 16.50390625 224.21875 C14.14410499 221.66102992 14.38365055 219.77387777 14.46684265 216.40026855 C14.81099923 213.04652085 15.95178826 210.25144707 17.2578125 207.15625 C17.53095779 206.49908493 17.80410309 205.84191986 18.08552551 205.1648407 C18.98110269 203.02064081 19.89669508 200.8856284 20.8125 198.75 C21.44068607 197.25349394 22.0677035 195.75649683 22.69360352 194.2590332 C25.95676407 186.48800136 29.3292758 178.76831062 32.76953125 171.07421875 C33.09540222 170.34224274 33.42127319 169.61026672 33.75701904 168.85610962 C35.32154124 165.34308905 36.89935308 161.83755619 38.50634766 158.34375 C39.07630835 157.07703069 39.64583118 155.81011424 40.21484375 154.54296875 C40.71749756 153.4449292 41.22015137 152.34688965 41.73803711 151.21557617 C43.32433384 146.26089725 41.65905061 142.83946279 39.59765625 138.26171875 C39.15276855 137.2670459 38.70788086 136.27237305 38.24951172 135.24755859 C37.75467285 134.15523926 37.25983398 133.06291992 36.75 131.9375 C36.22422363 130.76525879 35.69844727 129.59301758 35.15673828 128.38525391 C33.66574315 125.06166537 32.16800623 121.74115678 30.668396 118.42144775 C27.46249099 111.3244107 24.26214731 104.22486003 21.0625 97.125 C20.68481476 96.28705902 20.30712952 95.44911804 19.91799927 94.58578491 C11.36219245 75.59522858 2.94179469 56.54668656 -5.35827637 37.44299316 C-6.25835912 35.37442636 -7.16217696 33.30753999 -8.06738281 31.24121094 C-9.53785674 27.87485992 -10.99147391 24.5019088 -12.4375 21.125 C-13.04948242 19.7318457 -13.04948242 19.7318457 -13.67382812 18.31054688 C-15.75751912 13.37351326 -16.88584036 9.61982192 -16.3125 4.25 C-12.79621427 -1.02442859 -5.63507089 0.0345445 0 0 Z " fill="#040707" transform="translate(1733.3125,1877.75)"/>
<path d="M0 0 C1.03253906 -0.01160156 2.06507813 -0.02320313 3.12890625 -0.03515625 C4.12792969 -0.03128906 5.12695312 -0.02742188 6.15625 -0.0234375 C7.06181641 -0.02005371 7.96738281 -0.01666992 8.90039062 -0.01318359 C12.13315795 0.46954556 13.91521012 1.37441203 16.5 3.375 C17.9909668 5.76464844 17.9909668 5.76464844 19.26171875 8.734375 C19.76751465 9.90162109 20.27331055 11.06886719 20.79443359 12.27148438 C21.36437352 13.63873277 21.93279926 15.00661299 22.5 16.375 C23.16082116 17.94602618 23.82179948 19.51698626 24.48291016 21.08789062 C26.78606666 26.58936655 29.04929021 32.10700116 31.3125 37.625 C32.56693391 40.67471032 33.82233676 43.72402073 35.07774353 46.77333069 C35.93440389 48.85436272 36.79073562 50.93553005 37.64674377 53.01683044 C42.0960651 63.83310146 46.57767428 74.63591314 51.0625 85.4375 C52.13350384 88.01698867 53.20443224 90.59650836 54.27496338 93.17619324 C54.90523629 94.69496469 55.53578868 96.2136202 56.16668701 97.73213196 C57.63507587 101.27047732 59.08773956 104.81385446 60.5 108.375 C63.40082933 102.72485014 65.97702538 97.02603825 68.37890625 91.1484375 C68.74370087 90.2627005 69.10849548 89.3769635 69.48434448 88.46438599 C70.2702433 86.55516609 71.05478881 84.64538868 71.83810425 82.73510742 C73.07967295 79.70813192 74.32555131 76.68296197 75.57250977 73.65820312 C79.56793773 63.96206652 83.54913211 54.26018724 87.51496887 44.5519104 C89.2376187 40.33764562 90.96514125 36.12538751 92.69332886 31.91339111 C93.51869111 29.89777346 94.34157296 27.88113823 95.16189575 25.86346436 C96.30907812 23.04194528 97.46424447 20.22381657 98.62109375 17.40625 C99.12308792 16.16236008 99.12308792 16.16236008 99.63522339 14.89334106 C104.29610319 3.60516949 104.29610319 3.60516949 108.9296875 1.01879883 C113.43665669 -0.11008394 117.87742596 0.04737378 122.5 0.0625 C123.97726562 0.03833008 123.97726562 0.03833008 125.484375 0.01367188 C129.49512771 0.01096191 132.85266147 0.16794687 136.6875 1.39453125 C138.5 3.375 138.5 3.375 139.11328125 6.82421875 C138.71345631 12.72263948 136.094272 17.87078186 133.6875 23.1875 C132.87137051 25.03875393 132.05524692 26.89001047 131.23927307 28.74133301 C130.32954637 30.79790064 129.41258583 32.85112084 128.49414062 34.90380859 C126.35368866 39.69291667 124.24674945 44.49650089 122.140625 49.30078125 C112.14197154 72.08101729 101.9599144 94.77732156 91.65809631 117.42195129 C89.69257603 121.74356846 87.73516461 126.06860171 85.79199219 130.40031433 C84.53245031 133.20638556 83.26542833 136.00907948 82 138.8125 C81.57332031 139.77115967 81.14664063 140.72981934 80.70703125 141.7175293 C80.12501953 143.0001062 80.12501953 143.0001062 79.53125 144.30859375 C79.20705078 145.03103271 78.88285156 145.75347168 78.54882812 146.49780273 C77.000128 149.26967314 75.60998468 150.98567701 72.56982422 152.05200195 C68.92641427 152.62055956 65.30535503 152.55952718 61.625 152.5625 C60.83480469 152.57474609 60.04460937 152.58699219 59.23046875 152.59960938 C54.63175521 152.61108703 50.71589611 152.42149184 46.5 150.375 C43.13102705 146.69358538 41.04288192 142.69731954 39.03125 138.1796875 C38.71467438 137.48399658 38.39809875 136.78830566 38.07192993 136.0715332 C37.04088486 133.80081397 36.02027104 131.52557804 35 129.25 C34.27769073 127.65227596 33.5548658 126.05478496 32.83154297 124.45751953 C30.71090175 119.7678689 28.6043255 115.07198872 26.5 110.375 C25.9627832 109.17875 25.42556641 107.9825 24.87207031 106.75 C21.68380937 99.6431464 18.53040978 92.52127851 15.38995361 85.39318848 C14.40962121 83.17004388 13.42734693 80.94776337 12.44482422 78.72558594 C7.46048767 67.44956743 2.50652394 56.16065241 -2.41705322 44.85797119 C-3.4672121 42.45017581 -4.52103105 40.04401345 -5.57568359 37.63818359 C-7.15446763 34.03269998 -8.71761358 30.42084124 -10.26809692 26.80310059 C-10.83167931 25.49388901 -11.40013292 24.18676177 -11.97384644 22.88195801 C-17.73600995 9.75608752 -17.73600995 9.75608752 -16.5 3.375 C-12.45505207 -1.11347292 -5.59379067 -0.06285158 0 0 Z " fill="#040707" transform="translate(459.5,1877.625)"/>
<path d="M0 0 C2.99432376 4.49148565 2.58994034 8.73267553 2 14 C0.60034106 18.42345043 -1.43404374 22.15106561 -4 26 C-5.8125 26.53662109 -5.8125 26.53662109 -8 26.7734375 C-9.20003662 26.92268677 -9.20003662 26.92268677 -10.42431641 27.07495117 C-11.27429199 27.17396729 -12.12426758 27.2729834 -13 27.375 C-26.06803311 29.19399808 -35.81881625 33.83986019 -43.9765625 44.609375 C-53.08083632 58.32389811 -55.28873832 71.46866644 -55.27439499 87.63953781 C-55.27341898 90.0695582 -55.2864927 92.49914924 -55.30337524 94.92910767 C-55.34935686 101.82982243 -55.37428499 108.73048451 -55.38085938 115.63134766 C-55.38586914 119.87057376 -55.41007298 124.10933803 -55.44618607 128.34840775 C-55.45597916 129.95832169 -55.45831866 131.56829911 -55.45301437 133.1782341 C-55.44595522 135.42320248 -55.46319366 137.66678395 -55.48583984 139.91162109 C-55.48868988 141.18717865 -55.49153992 142.46273621 -55.49447632 143.77694702 C-56.08904481 147.56772044 -56.96972845 148.72314525 -60 151 C-63.98394876 152.32798292 -67.64054275 152.22332082 -71.8125 152.25 C-73.00456055 152.2809375 -73.00456055 152.2809375 -74.22070312 152.3125 C-79.22706092 152.34562726 -82.67113897 151.79982848 -87 149 C-88.31714912 146.36570177 -88.13795598 144.39153075 -88.15390015 141.44023132 C-88.16250061 140.25831207 -88.17110107 139.07639282 -88.17996216 137.85865784 C-88.18635208 135.9035453 -88.18635208 135.9035453 -88.19287109 133.90893555 C-88.20077144 132.52760613 -88.20904035 131.14627878 -88.21765137 129.76495361 C-88.24387848 125.22222873 -88.25917928 120.6794946 -88.2734375 116.13671875 C-88.27879682 114.57357082 -88.28417433 113.01042296 -88.28956985 111.44727516 C-88.31119924 104.94567381 -88.32993648 98.44407494 -88.34119225 91.94244671 C-88.3574351 82.62110396 -88.39061988 73.30017784 -88.44759309 63.97899216 C-88.48627721 57.42691084 -88.50582307 50.87494102 -88.51111281 44.32274848 C-88.51476832 40.40835802 -88.52680986 36.49441184 -88.55921555 32.58014488 C-88.58927001 28.8970759 -88.595618 25.21472059 -88.58383179 21.53155518 C-88.58350553 19.53694485 -88.60798859 17.54237875 -88.63320923 15.54792786 C-88.56508787 5.79972782 -88.56508787 5.79972782 -85.65103149 2.720047 C-81.20509776 -0.16457168 -77.26424104 -0.21296042 -72.125 -0.25 C-71.06345703 -0.2809375 -71.06345703 -0.2809375 -69.98046875 -0.3125 C-65.44078108 -0.34631518 -62.60629115 0.21149234 -59 3 C-56.04202021 6.80311687 -55.46501917 10.25680447 -55 15 C-54.28650391 14.25556641 -54.28650391 14.25556641 -53.55859375 13.49609375 C-45.05548049 5.24353263 -33.83278762 -0.46444741 -22 -2 C-20.86304688 -2.16242188 -20.86304688 -2.16242188 -19.703125 -2.328125 C-6.40779959 -4.02350207 -6.40779959 -4.02350207 0 0 Z " fill="#040707" transform="translate(1410,1878)"/>
</svg>
